<svg width="160" height="86" viewBox="0 0 160 86" fill="none" xmlns="http://www.w3.org/2000/svg">
<path d="M31.6098 60.2476V52.5097L0 86L31.6098 60.2476Z" fill="#0F75B9"/>
<path d="M31.6098 47.1347V39.338L0 81.0386L31.6098 47.1347Z" fill="#0F75B9"/>
<path d="M31.6098 34.0221V26.2253L0 75.5455L31.6098 34.0221Z" fill="#0F75B9"/>
<path d="M31.6098 20.9094V13.1126L0 70.5841L31.6098 20.9094Z" fill="#0F75B9"/>
<path d="M0 65.091L31.6098 7.73766V0L0 65.091Z" fill="#0F75B9"/>
<path d="M33.784 60.2476V52.5097L65.338 86L33.784 60.2476Z" fill="#0F75B9"/>
<path d="M33.784 47.1347V39.338L65.338 81.0386L33.784 47.1347Z" fill="#0F75B9"/>
<path d="M33.784 34.0221V26.2253L65.338 75.5455L33.784 34.0221Z" fill="#0F75B9"/>
<path d="M33.784 20.9094V13.1126L65.338 70.5841L33.784 20.9094Z" fill="#0F75B9"/>
<path d="M65.338 65.091L33.784 7.73766V0L65.338 65.091Z" fill="#0F75B9"/>
<path d="M90.2579 21.6773V24.8668H78.439V30.0056H84.2927C86.6899 30.0056 88.4739 30.5372 89.7004 31.6004C90.9268 32.6636 91.5401 34.1402 91.5401 36.1484C91.5401 38.2158 90.8711 39.8105 89.5331 40.9328C88.1951 42.0551 86.2439 42.6457 83.7352 42.6457H74.8153V21.6773H90.2579ZM83.568 39.6333C84.9617 39.6333 86.0767 39.338 86.8014 38.7474C87.5262 38.1567 87.9164 37.3298 87.9164 36.2075C87.9164 34.0812 86.4669 32.9589 83.6237 32.9589H78.439V39.5743H83.568V39.6333Z" fill="#333333"/>
<path d="M95.6098 21.6773H99.2335V36.5619L109.826 21.6773H113.227V42.6457H109.659V27.8201L99.0663 42.6457H95.6656V21.6773H95.6098Z" fill="#333333"/>
<path d="M136.92 42.6457V28.7652L130.453 40.224H128.836L122.369 28.9424V42.6457H118.913V21.6773H121.923L129.728 35.4987L137.477 21.6773H140.488L140.544 42.6457H136.92Z" fill="#333333"/>
<path d="M80 51.6828C80.5017 52.2144 80.7805 52.9232 80.7805 53.9864V58.5347H79.554V57.5302C79.331 57.885 79.0523 58.1211 78.662 58.3573C78.2718 58.5347 77.77 58.6528 77.2683 58.6528C76.4878 58.6528 75.8188 58.4754 75.3728 58.0618C74.8711 57.6483 74.6481 57.1167 74.6481 56.467C74.6481 55.8173 74.8711 55.2858 75.3171 54.8724C75.7631 54.4589 76.4878 54.2817 77.4913 54.2817H79.4982V53.9864C79.4982 53.3957 79.331 52.9823 78.9965 52.6279C78.662 52.2735 78.216 52.1553 77.6028 52.1553C77.1568 52.1553 76.7665 52.2144 76.3763 52.3916C75.9861 52.5097 75.6516 52.746 75.3728 52.9823L74.8153 51.9782C75.2056 51.6828 75.5958 51.4465 76.0975 51.2694C76.5993 51.0921 77.1568 51.033 77.7143 51.033C78.7178 50.9149 79.4983 51.2103 80 51.6828ZM78.7178 57.176C79.0523 56.9398 79.331 56.6444 79.4982 56.1721V55.1086H77.547C76.4878 55.1086 75.9303 55.5224 75.9303 56.2901C75.9303 56.6444 76.0418 56.9398 76.3205 57.176C76.5993 57.4121 76.9895 57.5302 77.4913 57.5302C77.993 57.5302 78.3833 57.4121 78.7178 57.176Z" fill="#232323"/>
<path d="M84.5714 58.0618C84.0139 57.7076 83.5679 57.2941 83.2334 56.7037C82.8989 56.1127 82.7317 55.463 82.7317 54.7543C82.7317 54.0455 82.8989 53.3367 83.2334 52.8051C83.5679 52.2144 84.0139 51.8009 84.5714 51.4465C85.1289 51.0921 85.7979 50.974 86.5226 50.974C87.1359 50.974 87.7491 51.0922 88.2509 51.3875C88.7526 51.6829 89.1429 52.0373 89.4216 52.5688L88.4739 53.2185C88.2509 52.8641 87.9721 52.5688 87.6376 52.3917C87.3031 52.2144 86.9686 52.0963 86.5226 52.0963C86.0767 52.0963 85.6307 52.2144 85.2962 52.3917C84.9059 52.6279 84.6272 52.9232 84.4042 53.3367C84.1812 53.7501 84.0697 54.2227 84.0697 54.6952C84.0697 55.2268 84.1812 55.6992 84.4042 56.1127C84.6272 56.5263 84.9059 56.8218 85.2962 57.0579C85.6864 57.2941 86.0767 57.4121 86.5226 57.4121C86.9129 57.4121 87.3031 57.2941 87.6376 57.1167C87.9721 56.9398 88.2509 56.6444 88.4739 56.2901L89.4216 56.9398C89.1429 57.4714 88.7526 57.885 88.2509 58.1211C87.7491 58.4166 87.1916 58.5347 86.5226 58.5347C85.7979 58.5935 85.1289 58.4166 84.5714 58.0618Z" fill="#232323"/>
<path d="M92.4321 58.0618C91.8746 57.7076 91.4286 57.2941 91.0941 56.7037C90.7596 56.1127 90.5924 55.463 90.5924 54.7543C90.5924 54.0455 90.7596 53.3367 91.0941 52.8051C91.4286 52.2144 91.8746 51.8009 92.4321 51.4465C92.9896 51.0921 93.6586 50.974 94.3833 50.974C94.9966 50.974 95.6098 51.0922 96.1115 51.3875C96.6133 51.6829 97.0035 52.0373 97.2823 52.5688L96.3345 53.2185C96.1116 52.8641 95.8328 52.5688 95.4983 52.3917C95.1638 52.2144 94.8293 52.0963 94.3833 52.0963C93.9373 52.0963 93.4913 52.2144 93.1568 52.3917C92.7666 52.6279 92.4879 52.9232 92.2649 53.3367C92.0419 53.7501 91.9304 54.2227 91.9304 54.6952C91.9304 55.2268 92.0419 55.6992 92.2649 56.1127C92.4879 56.5263 92.7666 56.8218 93.1568 57.0579C93.5471 57.2941 93.9373 57.4121 94.3833 57.4121C94.7736 57.4121 95.1638 57.2941 95.4983 57.1167C95.8328 56.9398 96.1116 56.6444 96.3345 56.2901L97.2823 56.9398C97.0035 57.4714 96.6133 57.885 96.1115 58.1211C95.6098 58.3573 95.0523 58.5347 94.3833 58.5347C93.6028 58.5935 92.9896 58.4166 92.4321 58.0618Z" fill="#232323"/>
<path d="M100.237 58.0618C99.6794 57.7076 99.2334 57.2941 98.8989 56.7037C98.5644 56.1127 98.4529 55.463 98.4529 54.7543C98.4529 54.0455 98.6202 53.3367 98.8989 52.8051C99.2334 52.2144 99.6794 51.8009 100.237 51.4465C100.794 51.0921 101.408 50.974 102.132 50.974C102.857 50.974 103.47 51.1512 104.028 51.4465C104.585 51.7419 105.031 52.2144 105.31 52.8051C105.645 53.3957 105.756 54.0455 105.756 54.7543C105.756 55.463 105.589 56.1721 105.31 56.7037C104.976 57.2941 104.585 57.7664 104.028 58.0618C103.47 58.4166 102.857 58.5347 102.132 58.5347C101.408 58.5347 100.794 58.4166 100.237 58.0618ZM103.359 57.0579C103.693 56.8218 104.028 56.5263 104.195 56.1127C104.418 55.6992 104.474 55.2268 104.474 54.7543C104.474 54.2227 104.362 53.7501 104.195 53.3957C103.972 52.9823 103.693 52.687 103.359 52.4507C103.024 52.2144 102.578 52.1553 102.132 52.1553C101.686 52.1553 101.296 52.2735 100.906 52.4507C100.571 52.687 100.237 52.9823 100.07 53.3957C99.8467 53.8092 99.7352 54.2818 99.7352 54.7543C99.7352 55.2859 99.8467 55.7585 100.07 56.1127C100.293 56.5263 100.571 56.8218 100.906 57.0579C101.24 57.2941 101.686 57.4121 102.132 57.4121C102.578 57.4121 102.969 57.2941 103.359 57.0579Z" fill="#232323"/>
<path d="M115.512 57.2941V60.2476H114.286V58.4754H107.93V50.974H109.213V57.2941H113.059V50.974H114.341V57.2941H115.512Z" fill="#232323"/>
<path d="M117.463 50.974H118.746V56.4082L123.094 50.974H124.265V58.4754H122.983V53.0414L118.634 58.4754H117.463V50.974Z" fill="#232323"/>
<path d="M131.847 51.6828C132.348 52.2144 132.627 52.9232 132.627 53.9864V58.5347H131.401V57.5302C131.178 57.885 130.899 58.1211 130.509 58.3573C130.118 58.5347 129.617 58.6528 129.115 58.6528C128.335 58.6528 127.666 58.4754 127.22 58.0618C126.718 57.6483 126.495 57.1167 126.495 56.467C126.495 55.8173 126.718 55.2858 127.164 54.8724C127.61 54.4589 128.335 54.2817 129.338 54.2817H131.345V53.9864C131.345 53.3957 131.178 52.9823 130.843 52.6279C130.509 52.3326 130.063 52.1553 129.449 52.1553C129.004 52.1553 128.613 52.2144 128.223 52.3916C127.833 52.5097 127.498 52.746 127.22 52.9823L126.662 51.9782C127.052 51.6828 127.443 51.4465 127.944 51.2694C128.446 51.0921 129.004 51.033 129.561 51.033C130.564 50.9149 131.289 51.2103 131.847 51.6828ZM130.564 57.176C130.899 56.9398 131.178 56.6444 131.345 56.1721V55.1086H129.394C128.335 55.1086 127.777 55.5224 127.777 56.2901C127.777 56.6444 127.889 56.9398 128.167 57.176C128.446 57.4121 128.836 57.5302 129.338 57.5302C129.784 57.5302 130.174 57.4121 130.564 57.176Z" fill="#232323"/>
<path d="M142.774 57.2941V60.2476H141.547V58.4754H135.192V50.974H136.474V57.2941H140.321V50.974H141.603V57.2941H142.774Z" fill="#232323"/>
<path d="M144.781 50.974H146.063V56.4082L150.411 50.974H151.582V58.4754H150.3V53.0414L145.951 58.4754H144.781V50.974Z" fill="#232323"/>
<path d="M160 50.974V58.4754H158.829V56.1127H156.599L155.038 58.4754H153.645L155.373 55.9353C154.815 55.7585 154.425 55.463 154.146 55.1086C153.868 54.6952 153.7 54.2227 153.7 53.632C153.7 52.746 153.979 52.0963 154.537 51.6829C155.094 51.2694 155.875 51.0331 156.822 51.0331H160V50.974ZM155.54 54.8133C155.819 55.0496 156.265 55.1677 156.878 55.1677H158.829V52.2144H156.934C155.707 52.2144 155.094 52.687 155.094 53.6911C155.094 54.1636 155.261 54.518 155.54 54.8133Z" fill="#232323"/>
</svg>
