<svg width="160" height="86" viewBox="0 0 160 86" fill="none" xmlns="http://www.w3.org/2000/svg">
<path d="M31.554 60.2649V52.4735L0 86L31.554 60.2649Z" fill="white"/>
<path d="M31.554 47.1612V39.3699L0 81.042L31.554 47.1612Z" fill="white"/>
<path d="M31.554 33.9986V26.2663L0 75.5522L31.554 33.9986Z" fill="white"/>
<path d="M31.554 20.895V13.1036L0 70.5942L31.554 20.895Z" fill="white"/>
<path d="M0 65.1049L31.554 7.79135V0L0 65.1049Z" fill="white"/>
<path d="M33.7282 60.2649V52.4735L65.338 86L33.7282 60.2649Z" fill="white"/>
<path d="M33.7282 47.1612V39.3699L65.338 81.042L33.7282 47.1612Z" fill="white"/>
<path d="M33.7282 33.9986V26.2663L65.338 75.5522L33.7282 33.9986Z" fill="white"/>
<path d="M33.7282 20.895V13.1036L65.338 70.5942L33.7282 20.895Z" fill="white"/>
<path d="M65.338 65.1049L33.7282 7.79135V0L65.338 65.1049Z" fill="white"/>
<path d="M74.8153 21.7214H90.2021V24.9088H78.439V30.044H84.2927C86.6899 30.044 88.4739 30.5752 89.7004 31.6377C90.9268 32.7001 91.5401 34.1757 91.5401 36.1826C91.5401 38.2484 90.8711 39.8422 89.5331 40.9636C88.1951 42.0851 86.2439 42.6754 83.7352 42.6754H74.8153V21.7214ZM83.5122 39.6651C84.9059 39.6651 86.0209 39.3699 86.7457 38.7797C87.4704 38.1894 87.8606 37.3631 87.8606 36.2416C87.8606 34.1167 86.4112 32.9952 83.568 32.9952H78.4948V39.606H83.5122V39.6651Z" fill="white"/>
<path d="M95.554 21.7214H99.1777V36.5957L109.77 21.7214H113.171V42.6754H109.547V27.8601L98.9547 42.6754H95.554V21.7214Z" fill="white"/>
<path d="M136.92 42.6163L136.864 28.7454L130.397 40.1963H128.78L122.314 28.9224V42.6163H118.857V21.6624H121.868L129.672 35.4743L137.422 21.6624H140.432L140.488 42.6163H136.92Z" fill="white"/>
<path d="M80 51.7063C80.5018 52.2375 80.7805 52.9457 80.7805 54.0082V58.5531H79.554V57.5499C79.331 57.9039 79.0523 58.1399 78.662 58.3759C78.2718 58.5531 77.7701 58.6711 77.2683 58.6711C76.4878 58.6711 75.8188 58.4939 75.3728 58.0811C74.8711 57.6679 74.6481 57.1366 74.6481 56.4874C74.6481 55.8381 74.8711 55.3069 75.3171 54.8936C75.7631 54.4804 76.4878 54.3033 77.4913 54.3033H79.4983V54.0082C79.4983 53.4179 79.331 53.0047 78.9965 52.6506C78.662 52.3555 78.216 52.1784 77.6028 52.1784C77.1568 52.1784 76.7666 52.2374 76.3763 52.4145C75.9861 52.5326 75.6516 52.7687 75.3728 53.0048L74.8153 52.0014C75.2056 51.7063 75.5958 51.4701 76.0976 51.293C76.5993 51.1159 77.1568 51.0569 77.7143 51.0569C78.7178 50.9388 79.4425 51.175 80 51.7063ZM78.7178 57.1954C79.0523 56.9594 79.331 56.6641 79.4983 56.1921V55.1296H77.5471C76.4878 55.1296 75.9303 55.5429 75.9303 56.3101C75.9303 56.6641 76.0418 56.9594 76.3206 57.1954C76.5993 57.4319 76.9896 57.5499 77.4913 57.5499C77.993 57.5499 78.3275 57.4319 78.7178 57.1954Z" fill="white"/>
<path d="M84.5157 58.0806C83.9582 57.7266 83.5122 57.3133 83.1777 56.7234C82.8432 56.1328 82.676 55.4836 82.676 54.7755C82.676 54.0672 82.8432 53.3588 83.1777 52.8276C83.5122 52.2373 83.9582 51.8242 84.5157 51.47C85.0732 51.1159 85.7422 50.9978 86.4669 50.9978C87.0802 50.9978 87.6934 51.1159 88.1951 51.411C88.6969 51.7061 89.0871 52.0603 89.3659 52.5915L88.4181 53.2408C88.1951 52.8867 87.9164 52.5915 87.5819 52.4144C87.2474 52.2373 86.9129 52.1193 86.4669 52.1193C86.0209 52.1193 85.5749 52.2373 85.2404 52.4144C84.8502 52.6505 84.5714 52.9456 84.3484 53.3588C84.1255 53.772 84.0139 54.2443 84.0139 54.7165C84.0139 55.2476 84.1255 55.7201 84.3484 56.1328C84.5714 56.5461 84.8502 56.8414 85.2404 57.0774C85.6307 57.3133 86.0209 57.4313 86.4669 57.4313C86.8572 57.4313 87.2474 57.3133 87.5819 57.1366C87.9164 56.9594 88.1951 56.6641 88.4181 56.3101L89.3659 56.9594C89.0871 57.4906 88.6969 57.9039 88.1951 58.1399C87.6934 58.3759 87.1359 58.5531 86.4669 58.5531C85.7422 58.5531 85.1289 58.4351 84.5157 58.0806Z" fill="white"/>
<path d="M92.3763 58.0806C91.8188 57.7266 91.3728 57.3133 91.0383 56.7234C90.7038 56.1328 90.5366 55.4836 90.5366 54.7755C90.5366 54.0672 90.7038 53.3588 91.0383 52.8276C91.3728 52.2373 91.8188 51.8242 92.3763 51.47C92.9338 51.1159 93.6028 50.9978 94.3275 50.9978C94.9408 50.9978 95.554 51.1159 96.0558 51.411C96.5575 51.7061 96.9477 52.0603 97.2265 52.5915L96.2787 53.2408C96.0558 52.8867 95.777 52.5915 95.4425 52.4144C95.108 52.2373 94.7735 52.1193 94.3275 52.1193C93.8815 52.1193 93.4355 52.2373 93.1011 52.4144C92.7108 52.6505 92.4321 52.9456 92.2091 53.3588C91.9861 53.772 91.8746 54.2443 91.8746 54.7165C91.8746 55.2476 91.9861 55.7201 92.2091 56.1328C92.4321 56.5461 92.7108 56.8414 93.1011 57.0774C93.4913 57.3133 93.8815 57.4313 94.3275 57.4313C94.7178 57.4313 95.108 57.3133 95.4425 57.1366C95.777 56.9594 96.0558 56.6641 96.2787 56.3101L97.2265 56.9594C96.9477 57.4906 96.5575 57.9039 96.0558 58.1399C95.554 58.4351 94.9965 58.5531 94.3275 58.5531C93.6028 58.5531 92.9338 58.4351 92.3763 58.0806Z" fill="white"/>
<path d="M100.181 58.0806C99.6237 57.7266 99.1777 57.3133 98.8432 56.7234C98.5087 56.1328 98.3972 55.4836 98.3972 54.7755C98.3972 54.0672 98.5645 53.3588 98.8432 52.8276C99.1777 52.2373 99.6237 51.8242 100.181 51.47C100.739 51.1159 101.352 50.9978 102.077 50.9978C102.801 50.9978 103.415 51.1749 103.972 51.47C104.53 51.7652 104.976 52.2373 105.254 52.8276C105.589 53.4178 105.7 54.0672 105.7 54.7755C105.7 55.4836 105.533 56.1921 105.254 56.7234C104.92 57.3133 104.53 57.7859 103.972 58.0806C103.415 58.4351 102.801 58.5531 102.077 58.5531C101.352 58.5531 100.739 58.4351 100.181 58.0806ZM103.303 57.0774C103.638 56.8414 103.972 56.5461 104.139 56.1328C104.362 55.7201 104.474 55.2476 104.474 54.7755C104.474 54.2442 104.362 53.772 104.139 53.4178C103.916 53.0046 103.638 52.7095 103.303 52.4734C102.969 52.2373 102.523 52.1783 102.077 52.1783C101.631 52.1783 101.24 52.2964 100.85 52.4734C100.516 52.7095 100.181 53.0046 100.014 53.4178C99.791 53.831 99.6795 54.3033 99.6795 54.7755C99.6795 55.3069 99.791 55.7789 100.014 56.1328C100.237 56.5461 100.516 56.8414 100.85 57.0774C101.185 57.3133 101.631 57.4313 102.077 57.4313C102.523 57.3726 102.913 57.2546 103.303 57.0774Z" fill="white"/>
<path d="M115.456 57.3133V60.2649H114.23V58.4939H107.875V50.9978H109.157V57.3133H113.003V50.9978H114.286V57.3133H115.456Z" fill="white"/>
<path d="M117.463 50.9978H118.746V56.4281L123.094 50.9978H124.265V58.4939H122.983V53.0637L118.634 58.4939H117.463V50.9978Z" fill="white"/>
<path d="M131.791 51.7063C132.293 52.2375 132.571 52.9457 132.571 54.0082V58.5531H131.345V57.5499C131.122 57.9039 130.843 58.1399 130.453 58.3759C130.063 58.5531 129.561 58.6711 129.059 58.6711C128.279 58.6711 127.61 58.4939 127.164 58.0811C126.662 57.6679 126.439 57.1366 126.439 56.4874C126.439 55.8381 126.662 55.3069 127.108 54.8936C127.554 54.4804 128.279 54.3033 129.282 54.3033H131.289V54.0082C131.289 53.4179 131.122 53.0047 130.787 52.6506C130.453 52.2964 130.007 52.1784 129.394 52.1784C128.948 52.1784 128.557 52.2374 128.167 52.4145C127.777 52.5326 127.443 52.7687 127.164 53.0048L126.606 52.0014C126.997 51.7063 127.387 51.4701 127.889 51.293C128.39 51.1159 128.948 51.0569 129.505 51.0569C130.509 50.9388 131.289 51.175 131.791 51.7063ZM130.509 57.1954C130.843 56.9594 131.122 56.6641 131.289 56.1921V55.1296H129.338C128.279 55.1296 127.721 55.5429 127.721 56.3101C127.721 56.6641 127.833 56.9594 128.111 57.1954C128.39 57.4319 128.78 57.5499 129.282 57.5499C129.728 57.5499 130.174 57.4319 130.509 57.1954Z" fill="white"/>
<path d="M142.774 57.3133V60.2649H141.547V58.4939H135.192V50.9978H136.474V57.3133H140.321V50.9978H141.603V57.3133H142.774Z" fill="white"/>
<path d="M144.725 50.9978H146.007V56.4281L150.355 50.9978H151.526V58.4939H150.244V53.0637L145.895 58.4939H144.725V50.9978Z" fill="white"/>
<path d="M160 50.9978V58.4939H158.829V56.1328H156.599L155.038 58.4939H153.645L155.373 55.9561C154.815 55.7789 154.425 55.4836 154.146 55.1296C153.868 54.7164 153.7 54.2442 153.7 53.6539C153.7 52.7686 153.979 52.1193 154.537 51.7061C155.094 51.293 155.875 51.0568 156.822 51.0568H160V50.9978ZM155.54 54.7755C155.819 55.0116 156.265 55.1296 156.878 55.1296H158.829V52.1783H156.934C155.707 52.1783 155.094 52.6505 155.094 53.6539C155.094 54.1852 155.206 54.5394 155.54 54.7755Z" fill="white"/>
</svg>
