<svg width="22" height="30" viewBox="0 0 22 30" fill="none" xmlns="http://www.w3.org/2000/svg">
<path d="M21.7523 7.14098L16.6348 1.09848C16.5927 1.05127 16.5413 1.01318 16.4839 0.98657C16.4265 0.959956 16.3643 0.945375 16.3011 0.943726H1.83105C1.38366 0.944255 0.954749 1.12221 0.638396 1.43857C0.322043 1.75492 0.144084 2.18384 0.143555 2.63123V27.3687C0.144084 27.8161 0.322043 28.245 0.638396 28.5614C0.954749 28.8777 1.38366 29.0557 1.83105 29.0562H20.1686C20.6159 29.0557 21.0449 28.8777 21.3612 28.5614C21.6776 28.245 21.8555 27.8161 21.8561 27.3687V7.42498C21.8526 7.32168 21.8162 7.22219 21.7523 7.14098ZM16.7386 2.57498L20.4748 6.98623H16.7386V2.57498ZM20.1686 28.1815H1.83105C1.61565 28.1812 1.40914 28.0955 1.25682 27.9432C1.10451 27.7909 1.01882 27.5844 1.01855 27.369V2.63123C1.01882 2.41582 1.10451 2.20931 1.25682 2.05699C1.40914 1.90468 1.61565 1.81899 1.83105 1.81873H15.8636V7.42498C15.8636 7.54099 15.9097 7.65223 15.9918 7.73426C16.0738 7.81629 16.185 7.86241 16.3011 7.86248H20.9811V27.37C20.9805 27.5852 20.8946 27.7914 20.7423 27.9434C20.5901 28.0954 20.3837 28.1812 20.1686 28.1815Z" fill="#007FBC"/>
<path d="M16.9748 9.35598H5.0248C4.90877 9.35598 4.79749 9.40207 4.71545 9.48412C4.6334 9.56616 4.5873 9.67744 4.5873 9.79348C4.5873 9.90951 4.6334 10.0208 4.71545 10.1028C4.79749 10.1849 4.90877 10.231 5.0248 10.231H16.9748C17.0908 10.231 17.2021 10.1849 17.2842 10.1028C17.3662 10.0208 17.4123 9.90951 17.4123 9.79348C17.4123 9.67744 17.3662 9.56616 17.2842 9.48412C17.2021 9.40207 17.0908 9.35598 16.9748 9.35598Z" fill="#007FBC"/>
<path d="M16.9748 12.9817H5.0248C4.90877 12.9817 4.79749 13.0278 4.71545 13.1099C4.6334 13.1919 4.5873 13.3032 4.5873 13.4192C4.5873 13.5353 4.6334 13.6465 4.71545 13.7286C4.79749 13.8106 4.90877 13.8567 5.0248 13.8567H16.9748C17.0908 13.8567 17.2021 13.8106 17.2842 13.7286C17.3662 13.6465 17.4123 13.5353 17.4123 13.4192C17.4123 13.3032 17.3662 13.1919 17.2842 13.1099C17.2021 13.0278 17.0908 12.9817 16.9748 12.9817Z" fill="#007FBC"/>
<path d="M16.9748 16.6077H5.0248C4.90877 16.6077 4.79749 16.6538 4.71545 16.7359C4.6334 16.8179 4.5873 16.9292 4.5873 17.0452C4.5873 17.1613 4.6334 17.2725 4.71545 17.3546C4.79749 17.4366 4.90877 17.4827 5.0248 17.4827H16.9748C17.0908 17.4827 17.2021 17.4366 17.2842 17.3546C17.3662 17.2725 17.4123 17.1613 17.4123 17.0452C17.4123 16.9292 17.3662 16.8179 17.2842 16.7359C17.2021 16.6538 17.0908 16.6077 16.9748 16.6077Z" fill="#007FBC"/>
<path d="M13.8826 20.175H5.0248C4.90877 20.175 4.79749 20.2211 4.71545 20.3031C4.6334 20.3852 4.5873 20.4964 4.5873 20.6125C4.5873 20.7285 4.6334 20.8398 4.71545 20.9218C4.79749 21.0039 4.90877 21.05 5.0248 21.05H13.8826C13.9986 21.05 14.1099 21.0039 14.1919 20.9218C14.274 20.8398 14.3201 20.7285 14.3201 20.6125C14.3201 20.4964 14.274 20.3852 14.1919 20.3031C14.1099 20.2211 13.9986 20.175 13.8826 20.175Z" fill="#007FBC"/>
</svg>
