<svg width="32" height="32" viewBox="0 0 32 32" fill="none" xmlns="http://www.w3.org/2000/svg">
<path d="M15.5999 6.20532C12.8453 6.20532 10.6042 8.47119 10.6042 11.2561C10.6042 14.0413 12.8453 16.3071 15.5999 16.3071C18.3547 16.3071 20.5958 14.0413 20.5958 11.2561C20.5958 8.47119 18.3547 6.20532 15.5999 6.20532Z" fill="#007FBC"/>
<path d="M15.5999 0C9.20361 0 4 5.26099 4 11.7278C4 14.6985 5.85141 18.8958 9.50304 24.2031C12.1721 28.0828 14.7972 31.085 14.9078 31.2109L15.5999 32L16.2922 31.2109C16.4026 31.085 19.0277 28.0828 21.697 24.2031C25.3483 18.8958 27.2 14.6985 27.2 11.7278C27.2 5.26099 21.9962 0 15.5999 0ZM15.5999 18.178C11.8249 18.178 8.75374 15.0728 8.75374 11.2561C8.75374 7.43945 11.8249 4.33447 15.5999 4.33447C19.3751 4.33447 22.4463 7.43945 22.4463 11.2561C22.4463 15.0728 19.3751 18.178 15.5999 18.178Z" fill="#007FBC"/>
</svg>
